<?xml version="1.0" encoding="utf-8"?>
<!-- Generator: Adobe Illustrator 17.1.0, SVG Export Plug-In . SVG Version: 6.00 Build 0)  -->
<!DOCTYPE svg PUBLIC "-//W3C//DTD SVG 1.1//EN" "http://www.w3.org/Graphics/SVG/1.1/DTD/svg11.dtd">
<svg version="1.1" id="Ebene_1" xmlns="http://www.w3.org/2000/svg" xmlns:xlink="http://www.w3.org/1999/xlink" x="0px" y="0px"
	 viewBox="0 0 100 100" enable-background="new 0 0 100 100" xml:space="preserve">
<g id="Base" display="none">
	<g display="inline">
		<line fill="none" stroke="#A9CCDB" stroke-width="0.25" stroke-miterlimit="10" x1="0.001" y1="-0.001" x2="100" y2="-0.001"/>
		<line fill="none" stroke="#A9CCDB" stroke-width="0.25" stroke-miterlimit="10" x1="0.001" y1="9.999" x2="100" y2="9.999"/>
		<line fill="none" stroke="#A9CCDB" stroke-width="0.25" stroke-miterlimit="10" x1="0.001" y1="19.999" x2="100" y2="19.999"/>
		<line fill="none" stroke="#A9CCDB" stroke-width="0.25" stroke-miterlimit="10" x1="0.001" y1="29.999" x2="100" y2="29.999"/>
		<line fill="none" stroke="#A9CCDB" stroke-width="0.25" stroke-miterlimit="10" x1="0.001" y1="39.999" x2="100" y2="39.999"/>
		<line fill="none" stroke="#A9CCDB" stroke-width="0.25" stroke-miterlimit="10" x1="0.001" y1="49.999" x2="100" y2="49.999"/>
		<line fill="none" stroke="#A9CCDB" stroke-width="0.25" stroke-miterlimit="10" x1="0.001" y1="59.998" x2="100" y2="59.998"/>
		<line fill="none" stroke="#A9CCDB" stroke-width="0.25" stroke-miterlimit="10" x1="0.001" y1="69.998" x2="100" y2="69.998"/>
		<line fill="none" stroke="#FF0000" stroke-width="0.25" stroke-miterlimit="10" x1="0.001" y1="80" x2="100" y2="80"/>
		<line fill="none" stroke="#A9CCDB" stroke-width="0.25" stroke-miterlimit="10" x1="0.001" y1="90" x2="100" y2="90"/>
		<line fill="none" stroke="#A9CCDB" stroke-width="0.25" stroke-miterlimit="10" x1="0" y1="-0.001" x2="0" y2="100"/>
		<line fill="none" stroke="#A9CCDB" stroke-width="0.25" stroke-miterlimit="10" x1="10" y1="-0.001" x2="10" y2="100"/>
		<line fill="none" stroke="#A9CCDB" stroke-width="0.25" stroke-miterlimit="10" x1="20.001" y1="-0.001" x2="20.001" y2="100"/>
		<line fill="none" stroke="#A9CCDB" stroke-width="0.25" stroke-miterlimit="10" x1="30" y1="-0.001" x2="30" y2="100"/>
		<line fill="none" stroke="#A9CCDB" stroke-width="0.25" stroke-miterlimit="10" x1="40" y1="-0.001" x2="40" y2="100"/>
		<line fill="none" stroke="#A9CCDB" stroke-width="0.25" stroke-miterlimit="10" x1="50" y1="-0.001" x2="50" y2="100"/>
		<line fill="none" stroke="#A9CCDB" stroke-width="0.25" stroke-miterlimit="10" x1="60" y1="-0.001" x2="60" y2="100"/>
		<line fill="none" stroke="#A9CCDB" stroke-width="0.25" stroke-miterlimit="10" x1="70" y1="-0.001" x2="70" y2="100"/>
		<line fill="none" stroke="#A9CCDB" stroke-width="0.25" stroke-miterlimit="10" x1="80" y1="-0.001" x2="80" y2="100"/>
		<line fill="none" stroke="#A9CCDB" stroke-width="0.25" stroke-miterlimit="10" x1="90" y1="-0.001" x2="90" y2="100"/>
		<text transform="matrix(1 0 0 1 5.2231 106.499)" font-family="'MyriadPro-Regular'" font-size="6">Hide these Guidelines before saving</text>
		<text transform="matrix(1 0 0 1 -23.2769 81.166)" font-family="'MyriadPro-Regular'" font-size="6">Baseline</text>
	</g>
</g>
<g display="none">
	<path display="inline" fill="#1A171B" d="M86.341,41.905c-0.975-0.925-2.31-2.192-2.536-2.889
		c-0.256-0.789,0.071-2.595,0.334-4.046c0.542-2.991,1.156-6.381-0.861-9.152c-2.033-2.794-5.615-3.275-8.494-3.661
		c-1.448-0.194-3.25-0.437-3.896-0.907c-0.624-0.454-1.399-2.075-2.021-3.378c-1.261-2.639-2.83-5.923-6.154-7.002
		c-0.668-0.217-1.377-0.327-2.106-0.327c-2.445,0-4.643,1.183-6.77,2.327c-1.321,0.711-2.964,1.595-3.837,1.595
		s-2.516-0.885-3.837-1.595c-2.126-1.144-4.325-2.327-6.77-2.327c-0.73,0-1.439,0.11-2.107,0.327
		c-3.324,1.079-4.893,4.363-6.154,7.002c-0.623,1.303-1.398,2.924-2.022,3.378c-0.646,0.47-2.447,0.712-3.895,0.906
		c-2.878,0.386-6.46,0.867-8.494,3.661c-2.017,2.772-1.403,6.162-0.861,9.152c0.263,1.452,0.59,3.258,0.334,4.047
		c-0.226,0.697-1.561,1.964-2.536,2.889c-2.136,2.028-4.794,4.552-4.794,8.095c0,3.544,2.658,6.067,4.794,8.095
		c0.975,0.925,2.309,2.192,2.536,2.889c0.256,0.788-0.071,2.595-0.335,4.046c-0.542,2.991-1.156,6.381,0.862,9.152
		c2.033,2.794,5.615,3.275,8.494,3.662c1.447,0.194,3.25,0.436,3.895,0.906c0.624,0.454,1.399,2.075,2.022,3.378
		c1.262,2.639,2.831,5.922,6.155,7.001c0.668,0.217,1.377,0.327,2.107,0.327c2.444,0,4.642-1.183,6.768-2.327
		c1.321-0.711,2.965-1.595,3.837-1.595s2.516,0.884,3.837,1.595c2.126,1.144,4.325,2.327,6.769,2.327c0.73,0,1.439-0.11,2.107-0.327
		c3.323-1.079,4.893-4.362,6.153-7.001c0.623-1.302,1.398-2.924,2.022-3.379c0.646-0.47,2.447-0.712,3.895-0.906
		c2.878-0.386,6.46-0.868,8.493-3.661c2.017-2.772,1.403-6.162,0.861-9.152c-0.263-1.452-0.59-3.258-0.334-4.047
		c0.226-0.697,1.561-1.964,2.536-2.889c2.136-2.028,4.794-4.552,4.794-8.095C91.134,46.457,88.476,43.933,86.341,41.905z
		 M81.741,53.25c-1.741,1.652-3.54,3.361-4.29,5.671c-0.775,2.388-0.303,4.998,0.114,7.301c0.222,1.228,0.637,3.514,0.311,4.031
		c-0.352,0.484-2.803,0.813-3.981,0.971c-2.309,0.31-4.925,0.661-6.938,2.126c-1.991,1.449-3.121,3.813-4.118,5.899
		c-0.517,1.082-1.594,3.334-2.179,3.525c-0.001,0-0.017,0.003-0.055,0.003c-0.762,0-2.338-0.848-3.604-1.529
		c-2.084-1.122-4.446-2.392-7.002-2.392s-4.918,1.271-7.002,2.392c-1.266,0.681-2.842,1.529-3.647,1.529
		c-0.596-0.193-1.672-2.446-2.19-3.528c-0.997-2.085-2.127-4.449-4.118-5.898c-2.012-1.465-4.629-1.816-6.937-2.126
		c-1.178-0.158-3.63-0.488-3.981-0.969c-0.327-0.518,0.087-2.804,0.31-4.032c0.417-2.303,0.89-4.913,0.115-7.3
		c-0.75-2.31-2.55-4.019-4.29-5.671c-0.948-0.9-2.713-2.576-2.713-3.25c0-0.674,1.765-2.35,2.713-3.25
		c1.741-1.652,3.54-3.361,4.29-5.671c0.775-2.388,0.302-4.998-0.115-7.301c-0.223-1.228-0.637-3.514-0.311-4.031
		c0.352-0.484,2.804-0.813,3.981-0.971c2.309-0.31,4.925-0.661,6.938-2.126c1.991-1.449,3.121-3.813,4.118-5.899
		c0.517-1.083,1.594-3.335,2.233-3.529c0.761,0,2.337,0.848,3.604,1.529c2.085,1.121,4.447,2.393,7.002,2.393
		c2.555,0,4.918-1.271,7.002-2.393c1.266-0.681,2.842-1.529,3.647-1.529c0,0,0,0,0,0c0.596,0.193,1.672,2.446,2.189,3.528
		c0.997,2.086,2.127,4.451,4.118,5.9c2.013,1.465,4.629,1.816,6.938,2.126c1.178,0.158,3.628,0.487,3.979,0.97
		c0.327,0.518-0.087,2.804-0.309,4.031c-0.418,2.303-0.89,4.913-0.115,7.3c0.75,2.31,2.55,4.019,4.29,5.671
		c0.948,0.9,2.713,2.576,2.713,3.25C84.454,50.675,82.689,52.35,81.741,53.25z"/>
	<path display="inline" fill="#1A171B" d="M50,33.855c-8.902,0-16.145,7.243-16.145,16.145c0,8.902,7.243,16.145,16.145,16.145
		s16.145-7.242,16.145-16.145C66.145,41.098,58.902,33.855,50,33.855z M50,59.464c-5.218,0-9.464-4.245-9.464-9.464
		c0-5.219,4.246-9.465,9.464-9.465s9.464,4.246,9.464,9.465C59.464,55.219,55.218,59.464,50,59.464z"/>
</g>
<path display="none" fill="#1A171B" d="M57.837,12.401H42.163c-17.343,0-31.452,14.109-31.452,31.452v15.674
	c0,17.343,14.109,31.452,31.452,31.452h15.674c17.343,0,31.452-14.109,31.452-31.452V43.853
	C89.289,26.511,75.18,12.401,57.837,12.401z M82.608,43.853v15.674c0,2.767-0.463,5.426-1.304,7.913
	c-3.513-4.488-9.178-10.761-16.119-15.034c7.169-4.41,12.959-10.935,16.44-15.444C82.261,39.151,82.608,41.462,82.608,43.853z
	 M42.163,19.082h15.674c8.555,0,16.111,4.361,20.564,10.976c-3.007,4.289-11.658,15.534-21.936,19.233
	c-0.276,0.074-0.529,0.165-0.753,0.268c-1.862,0.597-3.774,0.939-5.712,0.939c-1.219,0-2.502-0.242-3.987-0.523
	c-0.205-0.039-0.418-0.077-0.628-0.117C33.7,46.712,24.336,32.744,22.159,29.266C26.669,23.098,33.954,19.082,42.163,19.082z
	 M17.392,59.527V43.853c0-2.72,0.447-5.336,1.261-7.786c3.187,4.53,8.937,11.639,16.364,16.339
	c-7.162,4.536-12.777,11.327-16.026,15.866C17.96,65.551,17.392,62.605,17.392,59.527z M57.837,84.298H42.163
	c-7.916,0-14.971-3.737-19.509-9.534c2.578-3.979,10.024-14.435,19.549-18.672c0.033,0.006,0.066,0.011,0.099,0.016
	c0.618,0.09,1.201,0.195,1.77,0.301c1.913,0.485,3.89,0.769,5.927,0.769c2.599,0,5.309-0.153,7.703-1.169
	c9.241,3.925,16.95,13.531,20.19,18.031C73.387,80.25,66.078,84.298,57.837,84.298z"/>
<g display="none">
	<path display="inline" fill="#1A171B" d="M78.815,89.368L78.815,89.368c-4.689,0-9.693-2.715-13.714-4.896
		c-1.296-0.703-3.051-1.655-3.718-1.852c-0.37,0.002-0.998,0.01-1,0.01l-18.439-0.002c-17.777,0-32.241-12.955-32.241-28.878V39.511
		c0-15.924,14.463-28.879,32.241-28.879h16.113c17.777,0,32.239,12.955,32.239,28.879V50c0,6.471-2.125,10.426-3.833,13.604
		c-1.142,2.126-1.967,3.661-1.967,5.493c0,3.094,0.466,5.865,0.877,8.31c0.636,3.78,1.185,7.044-0.693,9.507
		c-1.051,1.379-2.639,2.185-4.717,2.396C79.586,89.349,79.204,89.368,78.815,89.368z M61.56,75.938c1.823,0,3.774,1.058,6.727,2.661
		c3.18,1.725,7.535,4.087,10.528,4.088h0c0.16,0,0.317-0.007,0.472-0.023c0.005,0,0.01-0.001,0.015-0.002
		c0.027-0.917-0.282-2.75-0.517-4.147c-0.432-2.569-0.97-5.765-0.97-9.418c0-3.513,1.405-6.128,2.763-8.656
		c1.494-2.779,3.037-5.652,3.037-10.441V39.511c0-12.24-11.465-22.198-25.558-22.198H41.945c-14.094,0-25.56,9.958-25.56,22.198
		V53.75c0,12.239,11.466,22.197,25.56,22.197l18.401,0.002C60.35,75.948,61.261,75.938,61.56,75.938z"/>
</g>
<g display="none">
	<path display="inline" fill="#1A171B" d="M57.836,89.289H42.163c-17.343,0-31.452-14.109-31.452-31.452V42.163
		c0-17.343,14.109-31.452,31.452-31.452h15.673c17.343,0,31.452,14.109,31.452,31.452v15.674
		C89.289,75.18,75.179,89.289,57.836,89.289z M42.163,17.392c-13.659,0-24.771,11.112-24.771,24.771v15.674
		c0,13.659,11.112,24.771,24.771,24.771h15.673c13.659,0,24.771-11.113,24.771-24.771V42.163c0-13.659-11.113-24.771-24.771-24.771
		H42.163z"/>
	<path display="inline" fill="#1A171B" d="M68.745,46.899H53.34V30.355c0-1.845-1.495-3.34-3.34-3.34s-3.34,1.495-3.34,3.34v16.543
		H31.255c-1.845,0-3.34,1.495-3.34,3.34c0,1.845,1.495,3.34,3.34,3.34H46.66v16.543c0,1.845,1.495,3.34,3.34,3.34
		s3.34-1.495,3.34-3.34V53.579h15.404c1.845,0,3.34-1.495,3.34-3.34C72.085,48.394,70.59,46.899,68.745,46.899z"/>
</g>
<g display="none">
	<g display="inline">
		<path fill="#1A171B" d="M50,69.485c-10.744,0-19.486-8.741-19.486-19.485c0-10.744,8.741-19.486,19.486-19.486
			c10.744,0,19.486,8.741,19.486,19.486C69.486,60.744,60.744,69.485,50,69.485z M50,36.241c-7.587,0-13.759,6.172-13.759,13.759
			c0,7.587,6.172,13.759,13.759,13.759c7.587,0,13.759-6.172,13.759-13.759C63.759,42.413,57.587,36.241,50,36.241z"/>
	</g>
	<path display="inline" fill="#1A171B" d="M50,26.114c-1.845,0-3.34-1.495-3.34-3.34V15.96c0-1.845,1.495-3.34,3.34-3.34
		c1.845,0,3.34,1.495,3.34,3.34v6.814C53.34,24.619,51.845,26.114,50,26.114z"/>
	<path display="inline" fill="#1A171B" d="M50,87.38c-1.845,0-3.34-1.495-3.34-3.34v-6.814c0-1.845,1.495-3.34,3.34-3.34
		c1.845,0,3.34,1.495,3.34,3.34v6.814C53.34,85.885,51.845,87.38,50,87.38z"/>
	<path display="inline" fill="#1A171B" d="M84.039,53.341h-6.813c-1.845,0-3.34-1.495-3.34-3.34c0-1.845,1.495-3.34,3.34-3.34h6.813
		c1.845,0,3.34,1.495,3.34,3.34C87.38,51.845,85.884,53.341,84.039,53.341z"/>
	<path display="inline" fill="#1A171B" d="M22.774,53.34h-6.813c-1.845,0-3.34-1.495-3.34-3.34c0-1.845,1.495-3.34,3.34-3.34h6.813
		c1.845,0,3.34,1.495,3.34,3.34C26.114,51.844,24.619,53.34,22.774,53.34z"/>
	<path display="inline" fill="#1A171B" d="M71.602,74.943c-0.855,0-1.71-0.326-2.363-0.979l-2.35-2.351
		c-1.304-1.305-1.303-3.42,0.001-4.724c1.305-1.303,3.42-1.303,4.724,0.001l2.35,2.351c1.304,1.305,1.303,3.42-0.001,4.724
		C73.311,74.617,72.456,74.943,71.602,74.943z"/>
	<path display="inline" fill="#1A171B" d="M30.748,34.089c-0.855,0-1.71-0.326-2.362-0.978l-2.35-2.35
		c-1.304-1.305-1.304-3.42,0-4.724c1.305-1.304,3.42-1.304,4.724,0l2.35,2.35c1.304,1.305,1.304,3.42,0,4.724
		C32.458,33.763,31.603,34.089,30.748,34.089z"/>
	<path display="inline" fill="#1A171B" d="M28.398,74.942c-0.855,0-1.71-0.326-2.363-0.979c-1.304-1.305-1.303-3.42,0.001-4.724
		l2.351-2.35c1.306-1.303,3.42-1.303,4.724,0.001c1.304,1.305,1.303,3.42-0.001,4.724l-2.351,2.35
		C30.107,74.616,29.252,74.942,28.398,74.942z"/>
	<path display="inline" fill="#1A171B" d="M69.252,34.089c-0.855,0-1.71-0.326-2.362-0.978c-1.304-1.305-1.304-3.42,0-4.724
		l2.35-2.35c1.305-1.304,3.42-1.304,4.724,0c1.304,1.305,1.304,3.42,0,4.724l-2.35,2.35C70.962,33.763,70.107,34.089,69.252,34.089z
		"/>
</g>
<g display="none">
	<path display="inline" fill="#1A171B" d="M57.836,89.29H42.164c-17.343,0-31.452-14.109-31.452-31.452V42.163
		c0-17.343,14.109-31.452,31.452-31.452h15.673c17.343,0,31.452,14.109,31.452,31.452v15.675
		C89.289,75.18,75.179,89.29,57.836,89.29z M42.164,17.391c-13.659,0-24.771,11.112-24.771,24.771v15.675
		c0,13.659,11.113,24.771,24.771,24.771h15.673c13.659,0,24.771-11.113,24.771-24.771V42.163c0-13.659-11.112-24.771-24.771-24.771
		H42.164z"/>
	<path display="inline" fill="#1A171B" d="M50,56.204c-1.845,0-3.34-1.495-3.34-3.34V32.98c0-1.845,1.495-3.34,3.34-3.34
		s3.34,1.495,3.34,3.34v19.883C53.34,54.708,51.845,56.204,50,56.204z"/>
	<path display="inline" fill="#1A171B" d="M63.973,56.204H50c-1.845,0-3.34-1.495-3.34-3.34c0-1.845,1.495-3.34,3.34-3.34h13.973
		c1.845,0,3.34,1.495,3.34,3.34C67.313,54.708,65.818,56.204,63.973,56.204z"/>
</g>
<g display="none">
	<path display="inline" fill="#1A171B" d="M57.836,89.29H42.164c-17.343,0-31.452-14.109-31.452-31.452V42.163
		c0-17.343,14.109-31.452,31.452-31.452h15.673c17.343,0,31.452,14.109,31.452,31.452v15.675
		C89.289,75.181,75.179,89.29,57.836,89.29z M42.164,17.391c-13.659,0-24.771,11.112-24.771,24.771v15.675
		c0,13.659,11.112,24.771,24.771,24.771h15.673c13.659,0,24.771-11.113,24.771-24.771V42.163c0-13.659-11.112-24.771-24.771-24.771
		H42.164z"/>
	<path display="inline" fill="#1A171B" d="M68.745,53.339h-37.49c-1.845,0-3.34-1.496-3.34-3.34c0-1.844,1.495-3.34,3.34-3.34h37.49
		c1.845,0,3.34,1.496,3.34,3.34C72.085,51.844,70.59,53.339,68.745,53.339z"/>
	<path display="inline" fill="#1A171B" d="M68.745,38.07h-37.49c-1.845,0-3.34-1.496-3.34-3.34c0-1.845,1.495-3.34,3.34-3.34h37.49
		c1.845,0,3.34,1.496,3.34,3.34C72.085,36.574,70.59,38.07,68.745,38.07z"/>
	<path display="inline" fill="#1A171B" d="M68.745,68.61h-37.49c-1.845,0-3.34-1.496-3.34-3.34s1.495-3.34,3.34-3.34h37.49
		c1.845,0,3.34,1.496,3.34,3.34S70.59,68.61,68.745,68.61z"/>
</g>
<g display="none">
	<path display="inline" fill="#1A171B" d="M57.836,89.29H42.164c-17.343,0-31.452-14.109-31.452-31.452V42.163
		c0-17.343,14.109-31.452,31.452-31.452h15.673c17.343,0,31.452,14.109,31.452,31.452v15.675
		C89.289,75.181,75.179,89.29,57.836,89.29z M42.164,17.391c-13.659,0-24.771,11.112-24.771,24.771v15.675
		c0,13.659,11.113,24.771,24.771,24.771h15.673c13.659,0,24.771-11.113,24.771-24.771V42.163c0-13.659-11.113-24.771-24.771-24.771
		H42.164z"/>
	<g display="inline">
		<path fill="#1A171B" d="M50.051,29.74c12.179,0,20.645,8.413,20.645,20.487c0,7.527-3.764,11.184-8.571,11.184
			c-2.979,0-5.174-1.202-6.377-3.344h-0.051c-1.097,2.09-3.24,3.292-6.952,3.292c-3.709,0-7.415-1.724-8.513-5.07
			c-0.471-1.411-0.731-3.029-0.731-5.853c0-2.822,0.468-4.39,0.939-5.853c1.098-3.396,4.438-5.069,7.939-5.069
			c2.875,0,4.915,1.254,5.854,2.769h0.105v-0.469c0.105-1.047,0.941-1.987,2.405-1.987c1.412,0,2.299,0.94,2.299,2.456v10.977
			c0,2.768,1.255,3.866,3.031,3.866c2.508,0,3.815-2.298,3.815-6.847c0-9.721-6.062-16.255-15.836-16.255
			c-9.877,0-15.939,6.533-15.939,16.202c0,9.669,6.115,16.202,15.992,16.202c4.183,0,7.006-0.576,9.93-1.883
			c0.367-0.104,0.733-0.209,1.046-0.209c1.045,0,1.986,0.785,1.986,1.987c0,0.783-0.471,1.515-1.36,1.933
			c-3.45,1.777-7.003,2.457-11.603,2.457c-12.332,0-20.8-8.414-20.8-20.488S37.772,29.74,50.051,29.74z M49.842,57.021
			c2.143,0,3.451-0.994,4.078-2.927c0.261-0.835,0.418-1.724,0.418-3.659c0-1.933-0.157-2.822-0.418-3.657
			c-0.626-1.935-1.935-2.928-4.078-2.928c-2.089,0-4.322,0.993-4.949,2.928c-0.262,0.835-0.585,1.724-0.585,3.657
			c0,1.935,0.156,2.824,0.419,3.659C45.353,56.027,47.753,57.021,49.842,57.021z"/>
	</g>
</g>
<g display="none">
	<path display="inline" fill="#1A171B" d="M50.036,89.003h-0.677c-4.1,0-38.647-21.413-38.647-45.214v-1.912
		c0-14.886,10.253-30.824,25.517-30.824c6.667,0,10.456,3.177,12.72,5.076c0.349,0.293,0.786,0.659,1.11,0.898
		c0.453-0.284,1.117-0.795,1.637-1.194c2.509-1.926,6.3-4.837,11.805-4.837c15.425,0,25.787,15.968,25.787,30.882v1.912
		c0,10.396-6.471,21.463-18.713,32.003c-7.834,6.745-18.192,13.16-20.504,13.21L50.036,89.003z M36.228,17.735
		c-11.1,0-18.836,12.724-18.836,24.143v1.912c0,18.745,27.457,36.029,32.248,38.41c5.399-2.652,32.967-19.669,32.967-38.41v-1.912
		c0-11.447-7.847-24.201-19.106-24.201c-3.236,0-5.628,1.836-7.737,3.455c-1.832,1.406-3.562,2.735-5.765,2.735
		c-2.223,0-3.81-1.331-5.345-2.618C42.691,19.602,40.465,17.735,36.228,17.735z"/>
</g>
<g display="none">
	<path display="inline" fill="#1A171B" d="M62.884,15.216V9.955c0-1.845-1.495-3.34-3.34-3.34c-1.845,0-3.34,1.496-3.34,3.34v4.851
		H43.796V9.955c0-1.845-1.495-3.34-3.34-3.34c-1.845,0-3.34,1.496-3.34,3.34v5.261C22.165,17.64,10.711,30.634,10.711,46.258v15.675
		c0,17.343,14.109,31.452,31.452,31.452h15.673c17.343,0,31.452-14.109,31.452-31.452V46.258
		C89.289,30.634,77.835,17.64,62.884,15.216z M82.608,61.933c0,13.659-11.113,24.771-24.771,24.771H42.163
		c-13.659,0-24.771-11.112-24.771-24.771V46.258c0-11.929,8.477-21.915,19.723-24.253v5.924c0,1.844,1.495,3.34,3.34,3.34
		c1.845,0,3.34-1.496,3.34-3.34v-6.442h12.407v6.442c0,1.844,1.495,3.34,3.34,3.34c1.845,0,3.34-1.496,3.34-3.34v-5.924
		c11.246,2.338,19.723,12.324,19.723,24.253V61.933z"/>
	<g display="inline">
		<path fill="#1A171B" d="M38.672,44.933h-0.099l-3.689,2.606c-0.49,0.344-1.081,0.491-1.672,0.491c-1.228,0-2.31-1.082-2.31-2.409
			c0-0.885,0.541-1.721,1.474-2.41l5.359-3.786c1.182-0.837,2.214-1.279,3.443-1.279c1.819,0,2.999,1.279,2.999,3.245v27.784
			c0,1.819-1.13,2.902-2.753,2.902c-1.622,0-2.753-1.083-2.753-2.902V44.933z"/>
		<path fill="#1A171B" d="M49.735,54.374l8.112-14.704c0.542-1.033,1.426-1.525,2.459-1.525c1.378,0,2.557,0.934,2.557,2.459
			c0,0.492-0.099,1.033-0.393,1.573l-5.754,10.081l0.099,0.099c0.492-0.246,1.476-0.442,2.509-0.442c5.163,0,9.54,3.737,9.54,9.883
			c0,6.836-4.722,10.573-10.672,10.573c-5.95,0-10.672-3.737-10.672-10.327C47.521,59.389,48.457,56.734,49.735,54.374z
			 M58.193,67.454c3.146,0,5.115-2.164,5.115-5.311c0-3.148-1.968-5.311-5.115-5.311c-3.147,0-5.113,2.162-5.113,5.311
			C53.079,65.29,55.046,67.454,58.193,67.454z"/>
	</g>
</g>
<g display="none">
	<g display="inline">
		<path fill="#1A171B" stroke="#1A171B" stroke-miterlimit="10" d="M45.924,56.569v-0.422c0-2.538,0.483-4.17,2.417-6.405
			l3.323-3.988c2.115-2.538,2.538-3.867,2.538-5.739c0-2.477-1.692-4.592-4.653-4.592c-2.659,0-4.35,1.39-5.196,3.746
			c-0.665,1.631-1.813,2.356-3.142,2.356c-1.813,0-3.142-1.208-3.142-2.96c0-0.423,0.06-1.027,0.241-1.571
			c1.39-4.471,5.378-7.613,11.42-7.613c6.888,0,11.359,4.531,11.359,10.574c0,3.142-0.967,5.559-3.323,8.338l-3.626,4.29
			c-1.208,1.45-1.571,2.235-1.571,3.625v0.363c0,2.115-1.51,3.324-3.323,3.324C47.375,59.892,45.924,58.684,45.924,56.569z
			 M49.368,63.336c2.236,0,4.169,1.873,4.169,4.169c0,2.296-1.934,4.169-4.169,4.169c-2.296,0-4.169-1.872-4.169-4.169
			C45.199,65.21,47.072,63.336,49.368,63.336z"/>
	</g>
	<path display="inline" fill="#1A171B" d="M57.837,89.29H42.164c-17.343,0-31.452-14.109-31.452-31.452V42.163
		c0-17.343,14.109-31.452,31.452-31.452h15.673c17.343,0,31.452,14.109,31.452,31.452v15.675
		C89.289,75.181,75.179,89.29,57.837,89.29z M42.164,17.391c-13.659,0-24.771,11.112-24.771,24.771v15.675
		c0,13.659,11.113,24.771,24.771,24.771h15.673c13.659,0,24.771-11.113,24.771-24.771V42.163c0-13.659-11.112-24.771-24.771-24.771
		H42.164z"/>
</g>
<g display="none">
	<g display="inline">
		<path fill="#1A171B" d="M35.79,67.549c-0.855,0-1.71-0.326-2.362-0.979c-1.304-1.304-1.304-3.42,0-4.723L61.847,33.43
			c1.304-1.305,3.42-1.304,4.724,0c1.304,1.304,1.304,3.42,0,4.723L38.152,66.57C37.5,67.223,36.645,67.549,35.79,67.549z"/>
		<path fill="#1A171B" d="M64.21,67.549c-0.855,0-1.71-0.326-2.362-0.979L33.43,38.153c-1.305-1.304-1.305-3.42,0-4.723
			c1.305-1.305,3.42-1.305,4.724,0l28.418,28.417c1.305,1.304,1.305,3.42,0,4.723C65.919,67.223,65.064,67.549,64.21,67.549z"/>
	</g>
	<path display="inline" fill="#1A171B" d="M57.836,89.29H42.164c-17.343,0-31.452-14.109-31.452-31.452V42.163
		c0-17.343,14.109-31.452,31.452-31.452h15.673c17.343,0,31.452,14.109,31.452,31.452v15.675
		C89.289,75.181,75.179,89.29,57.836,89.29z M42.164,17.391c-13.659,0-24.771,11.112-24.771,24.771v15.675
		c0,13.659,11.112,24.771,24.771,24.771h15.673c13.659,0,24.771-11.113,24.771-24.771V42.163c0-13.659-11.112-24.771-24.771-24.771
		H42.164z"/>
</g>
<path display="none" fill="#1A171B" d="M84.233,71.707L65.368,50.943c1.459-2.924,2.428-6.151,2.785-9.586
	c0.766-7.379-1.387-14.613-6.063-20.372c-4.675-5.758-11.314-9.352-18.692-10.117c-0.962-0.1-1.938-0.15-2.9-0.15
	c-14.256,0-26.118,10.706-27.592,24.904c-1.581,15.231,9.524,28.91,24.756,30.493c0.961,0.1,1.935,0.15,2.896,0.15
	c3.336,0,6.538-0.593,9.509-1.673l18.99,20.903c2.188,2.407,5.232,3.789,8.352,3.789c2.493,0,4.853-0.898,6.646-2.527
	C88.235,82.954,88.315,76.203,84.233,71.707z M38.353,59.469c-11.568-1.201-20.001-11.591-18.8-23.158
	c1.119-10.783,10.124-18.913,20.946-18.913c0.732,0,1.475,0.038,2.209,0.115c5.603,0.582,10.645,3.31,14.195,7.683
	c3.551,4.373,5.186,9.868,4.604,15.472c-0.507,4.883-2.641,9.21-5.819,12.498c-0.027,0.025-0.051,0.047-0.08,0.073l-0.787,0.758
	c-1.539,1.4-3.415,2.666-5.331,3.59l-0.089,0.043c-2.696,1.247-5.688,1.955-8.844,1.955C39.827,59.584,39.085,59.545,38.353,59.469z
	 M79.561,81.812c-0.718,0.652-1.566,0.789-2.152,0.789c-1.241,0-2.483-0.583-3.407-1.6L56.227,61.436
	c1.555-1.063,2.992-2.287,4.298-3.642c0.416-0.379,0.793-0.727,1.109-1.026l17.653,19.431C80.894,77.97,81.017,80.488,79.561,81.812
	z"/>
<g display="none">
	<path display="inline" fill="#1A171B" d="M49.809,71.026c-5.081,0-9.889-1.939-13.525-5.389c-1.985,0.662-4.045,0.995-6.15,0.995
		c-10.848,0-19.673-8.825-19.673-19.673c0-6.75,3.418-12.93,9.032-16.535c1.44-9.502,9.642-16.699,19.428-16.699
		c2.365,0,4.723,0.434,6.936,1.268c3.541-3.015,8.065-4.707,12.739-4.707c10.146,0,18.524,7.721,19.564,17.597
		c6.893,3.19,11.379,10.09,11.379,17.835c0,10.848-8.825,19.673-19.673,19.673c-1.882,0-3.73-0.267-5.52-0.795
		C60.64,68.663,55.374,71.026,49.809,71.026z M38.088,57.541l1.661,2.029c2.483,3.036,6.15,4.776,10.06,4.776
		c4.256,0,8.249-2.098,10.684-5.612l1.576-2.275l2.529,1.126c1.679,0.747,3.452,1.126,5.269,1.126
		c7.164,0,12.992-5.828,12.992-12.992c0-5.642-3.606-10.605-8.974-12.348l-2.337-0.76l0.028-2.457
		c0.001-0.093,0.006-0.184,0.012-0.274c-0.043-7.127-5.855-12.912-12.992-12.912c-3.679,0-7.082,1.508-9.582,4.245l-1.743,1.908
		l-2.285-1.207c-1.891-1-3.932-1.507-6.066-1.507c-6.871,0-12.56,5.379-12.951,12.245l-0.108,1.9l-1.69,0.875
		c-4.337,2.248-7.031,6.667-7.031,11.533c0,7.165,5.828,12.992,12.992,12.992c1.933,0,3.813-0.431,5.588-1.28L38.088,57.541z"/>
	<path display="inline" fill="#1A171B" d="M42.129,89.714c-1.845,0-3.34-1.496-3.34-3.34v-9.678c0-1.844,1.495-3.34,3.34-3.34
		c1.845,0,3.34,1.496,3.34,3.34v9.678C45.469,88.218,43.974,89.714,42.129,89.714z"/>
	<path display="inline" fill="#1A171B" d="M58.354,89.714c-1.845,0-3.34-1.496-3.34-3.34V75.741c0-1.844,1.495-3.34,3.34-3.34
		s3.34,1.496,3.34,3.34v10.633C61.694,88.218,60.199,89.714,58.354,89.714z"/>
	<path display="inline" fill="#1A171B" d="M73.624,89.714c-1.845,0-3.34-1.496-3.34-3.34V70.969c0-1.844,1.495-3.34,3.34-3.34
		c1.845,0,3.34,1.496,3.34,3.34v15.404C76.964,88.218,75.469,89.714,73.624,89.714z"/>
</g>
<g display="none">
	<path display="inline" fill="#1A171B" d="M57.837,89.289H42.164c-17.343,0-31.452-14.109-31.452-31.452V42.164
		c0-17.343,14.109-31.452,31.452-31.452h15.673c17.343,0,31.452,14.109,31.452,31.452v15.673
		C89.289,75.18,75.179,89.289,57.837,89.289z M42.164,17.392c-13.659,0-24.771,11.113-24.771,24.771v15.673
		c0,13.659,11.113,24.771,24.771,24.771h15.673c13.659,0,24.771-11.113,24.771-24.771V42.164c0-13.659-11.112-24.771-24.771-24.771
		H42.164z"/>
	<path display="inline" fill="#1A171B" d="M66.255,43.928c-1.319-1.291-3.434-1.268-4.724,0.05l-8.191,8.369V30.912
		c0-1.845-1.495-3.34-3.34-3.34s-3.34,1.496-3.34,3.34v21.081l-7.844-8.015c-1.291-1.318-3.406-1.341-4.724-0.05
		c-1.318,1.29-1.341,3.405-0.051,4.723l13.572,13.867c0.004,0.005,0.01,0.007,0.014,0.012c0.155,0.157,0.324,0.299,0.507,0.422
		c0.059,0.04,0.124,0.065,0.185,0.101c0.128,0.075,0.255,0.153,0.394,0.211c0.101,0.042,0.206,0.064,0.309,0.096
		c0.106,0.033,0.208,0.074,0.319,0.096c0.217,0.043,0.438,0.066,0.658,0.066c0.058,0,0.116-0.013,0.173-0.017
		c0.058,0.004,0.115,0.017,0.173,0.017c0.867,0,1.733-0.335,2.387-1.004l13.572-13.867C67.597,47.333,67.574,45.218,66.255,43.928z"
		/>
	<path display="inline" fill="#1A171B" d="M64.635,73.701H35.365c-1.845,0-3.34-1.496-3.34-3.34c0-1.844,1.495-3.34,3.34-3.34
		h29.269c1.845,0,3.34,1.496,3.34,3.34C67.975,72.206,66.48,73.701,64.635,73.701z"/>
</g>
<g display="none">
	<path display="inline" fill="#1A171B" d="M57.836,89.289H42.163c-17.343,0-31.452-14.109-31.452-31.452V42.164
		c0-17.343,14.109-31.452,31.452-31.452h15.673c17.343,0,31.452,14.109,31.452,31.452v15.673
		C89.289,75.18,75.179,89.289,57.836,89.289z M42.163,17.392c-13.659,0-24.771,11.113-24.771,24.771v15.673
		c0,13.659,11.112,24.771,24.771,24.771h15.673c13.659,0,24.771-11.113,24.771-24.771V42.164c0-13.659-11.113-24.771-24.771-24.771
		H42.163z"/>
	<path display="inline" fill="#1A171B" d="M65.959,52.624L52.387,38.757c-0.005-0.005-0.01-0.007-0.014-0.012
		c-0.133-0.134-0.281-0.253-0.436-0.364c-0.094-0.067-0.193-0.121-0.291-0.177c-0.115-0.066-0.226-0.137-0.349-0.189
		c-0.187-0.078-0.38-0.135-0.576-0.179c-0.02-0.005-0.039-0.011-0.06-0.016c-0.212-0.042-0.428-0.063-0.644-0.064
		c-0.006,0-0.011-0.002-0.016-0.002c-0.06,0-0.116,0.015-0.175,0.018c-0.924-0.048-1.862,0.273-2.559,0.986L33.694,52.624
		c-1.29,1.319-1.268,3.434,0.051,4.723c0.65,0.637,1.494,0.953,2.337,0.953c0.867,0,1.733-0.335,2.387-1.004l8.191-8.369v21.433
		c0,1.845,1.495,3.34,3.34,3.34s3.34-1.496,3.34-3.34V49.282l7.844,8.015c0.654,0.668,1.521,1.004,2.387,1.004
		c0.843,0,1.687-0.317,2.337-0.953C67.227,56.057,67.25,53.942,65.959,52.624z"/>
	<path display="inline" fill="#1A171B" d="M64.635,34.254L64.635,34.254l-29.269-0.002c-1.845,0-3.34-1.496-3.34-3.34
		c0-1.845,1.496-3.34,3.34-3.34l0,0l29.269,0.002c1.845,0,3.34,1.496,3.34,3.34C67.975,32.758,66.479,34.254,64.635,34.254z"/>
</g>
<g display="none">
	<path display="inline" fill="#1A171B" d="M66.864,33.851v-7.575c0-7.183-5.844-13.027-13.028-13.027h-7.672
		c-7.184,0-13.028,5.844-13.028,13.027v7.575c-7.999,4.03-13.502,12.316-13.502,21.866v6.561c0,13.495,10.979,24.473,24.475,24.473
		h11.782c13.495,0,24.475-10.978,24.475-24.473v-6.561C80.365,46.167,74.862,37.881,66.864,33.851z M39.817,26.275
		c0-3.499,2.847-6.346,6.347-6.346h7.672c3.5,0,6.347,2.847,6.347,6.346v5.353c-1.395-0.248-2.827-0.385-4.292-0.385H44.109
		c-1.465,0-2.897,0.137-4.292,0.385V26.275z M73.685,62.278c0,9.81-7.982,17.792-17.794,17.792H44.109
		c-9.811,0-17.794-7.982-17.794-17.792v-6.561c0-9.811,7.982-17.793,17.794-17.793h11.782c9.811,0,17.794,7.982,17.794,17.793
		V62.278z"/>
	<path display="inline" fill="#1A171B" d="M50,46.363c-5.011,0-9.088,4.076-9.088,9.086c0,1.998,0.64,3.898,1.824,5.464v4.894
		c0,4.005,3.259,7.263,7.264,7.263c4.005,0,7.264-3.258,7.264-7.263v-4.894c1.183-1.567,1.823-3.466,1.823-5.464
		C59.088,50.439,55.011,46.363,50,46.363z M52.377,57.828l-0.839,0.839v7.141c0,0.847-0.69,1.537-1.537,1.537
		c-0.848,0-1.538-0.69-1.538-1.537v-7.141l-0.839-0.839c-0.635-0.636-0.985-1.48-0.985-2.379c0-1.853,1.508-3.36,3.361-3.36
		c1.853,0,3.361,1.507,3.361,3.36C53.361,56.348,53.011,57.192,52.377,57.828z"/>
</g>
<g display="none">
	<path display="inline" fill="#1A171B" d="M49.882,54.17c-3.21,0-6.253-1.184-8.599-3.298c-1.202,0.366-2.444,0.552-3.709,0.552
		c-7.088,0-12.855-5.766-12.855-12.855c0-4.329,2.15-8.299,5.696-10.672C31.458,21.81,36.761,17.23,43.07,17.23
		c1.438,0,2.872,0.245,4.229,0.718c2.276-1.841,5.131-2.869,8.077-2.869c6.525,0,11.93,4.887,12.748,11.192
		c4.346,2.139,7.157,6.565,7.157,11.521c0,7.087-5.767,12.853-12.856,12.853c-1.117,0-2.213-0.143-3.278-0.425
		C56.74,52.722,53.402,54.17,49.882,54.17z M42.701,44.501l1.312,1.605c1.448,1.77,3.587,2.785,5.868,2.785
		c2.48,0,4.809-1.224,6.23-3.273l1.246-1.797l1.997,0.89c0.974,0.434,2.007,0.654,3.07,0.654c4.178,0,7.577-3.397,7.577-7.574
		c0-3.29-2.103-6.183-5.233-7.2l-1.824-0.593l0.007-2.13c-0.034-4.148-3.419-7.511-7.575-7.511c-2.144,0-4.128,0.88-5.588,2.477
		l-1.377,1.507l-1.805-0.954c-1.102-0.584-2.292-0.879-3.536-0.879c-4.005,0-7.322,3.136-7.55,7.139l-0.085,1.503l-1.336,0.692
		c-2.53,1.31-4.101,3.887-4.101,6.725c0,4.177,3.399,7.576,7.575,7.576c1.124,0,2.221-0.252,3.258-0.748L42.701,44.501z"/>
	<path display="inline" fill="#1A171B" d="M61.806,70.39l-9.755-10.049c-0.005-0.006-0.011-0.008-0.016-0.014
		c-0.014-0.014-0.024-0.032-0.039-0.046c-0.087-0.085-0.185-0.15-0.279-0.222c-0.044-0.034-0.085-0.073-0.13-0.103
		c-0.108-0.072-0.222-0.128-0.337-0.184c-0.055-0.027-0.106-0.06-0.162-0.082c-0.106-0.044-0.215-0.072-0.325-0.103
		c-0.07-0.02-0.139-0.045-0.211-0.059c-0.093-0.018-0.187-0.022-0.282-0.032c-0.091-0.008-0.182-0.021-0.274-0.021
		c-0.075,0-0.148,0.012-0.222,0.018c-0.112,0.008-0.223,0.015-0.333,0.037c-0.056,0.011-0.111,0.032-0.166,0.047
		c-0.124,0.033-0.248,0.065-0.368,0.115c-0.045,0.019-0.088,0.046-0.132,0.067c-0.124,0.059-0.248,0.12-0.364,0.199
		c-0.042,0.028-0.079,0.064-0.119,0.094c-0.098,0.074-0.199,0.142-0.289,0.229c-0.015,0.014-0.025,0.032-0.039,0.046
		c-0.005,0.006-0.011,0.008-0.016,0.014L38.194,70.39c-1.101,1.135-1.074,2.948,0.061,4.049c0.556,0.541,1.275,0.809,1.994,0.809
		c0.747,0,1.494-0.291,2.055-0.869l4.831-4.977v12.656c0,1.582,1.282,2.863,2.863,2.863c1.581,0,2.863-1.282,2.863-2.863V69.396
		l4.837,4.983c0.562,0.578,1.308,0.869,2.055,0.869c0.718,0,1.438-0.268,1.994-0.809C62.881,73.338,62.908,71.525,61.806,70.39z"/>
</g>
<g display="none">
	<path display="inline" fill="#1A171B" d="M57.836,89.289H42.164c-17.343,0-31.452-14.109-31.452-31.452V42.164
		c0-17.343,14.109-31.452,31.452-31.452h15.673c17.343,0,31.452,14.109,31.452,31.452v15.673
		C89.289,75.18,75.179,89.289,57.836,89.289z M42.164,17.392c-13.659,0-24.771,11.113-24.771,24.771v15.673
		c0,13.659,11.113,24.771,24.771,24.771h15.673c13.659,0,24.771-11.113,24.771-24.771V42.164c0-13.659-11.113-24.771-24.771-24.771
		H42.164z"/>
	<path display="inline" fill="#1A171B" d="M38.235,43.478c-4.21,0-7.635-3.425-7.635-7.635c0-4.21,3.425-7.635,7.635-7.635
		s7.635,3.425,7.635,7.635C45.87,40.053,42.445,43.478,38.235,43.478z M38.235,32.979c-1.579,0-2.863,1.284-2.863,2.863
		s1.284,2.863,2.863,2.863s2.863-1.284,2.863-2.863S39.814,32.979,38.235,32.979z"/>
	<path display="inline" fill="#1A171B" d="M70.198,68.184h-41.34c-1.669,0-3.054-0.741-3.8-2.032
		c-0.746-1.292-0.694-2.861,0.141-4.307l7.288-12.625c0.854-1.478,2.315-2.361,3.909-2.361c1.306,0,2.535,0.581,3.46,1.635
		l2.465,2.807l9.952-14.4c0.882-1.275,2.195-2.007,3.603-2.007c1.516,0,2.92,0.862,3.753,2.305l14.228,24.646
		c0.835,1.445,0.886,3.014,0.141,4.306C73.254,67.443,71.868,68.184,70.198,68.184z M31.457,62.457h36.142L55.753,41.938
		l-9.467,13.697c-0.918,1.326-2.322,2.087-3.854,2.087c-1.331,0-2.626-0.605-3.552-1.659l-2.251-2.565L31.457,62.457z"/>
</g>
<g>
	<g>
		<path fill="#1A171B" d="M57.837,89.289H42.164c-17.343,0-31.452-14.109-31.452-31.452V42.163
			c0-17.343,14.109-31.452,31.452-31.452h15.673c17.343,0,31.452,14.109,31.452,31.452v15.675
			C89.289,75.18,75.179,89.289,57.837,89.289z M42.164,17.391c-13.659,0-24.771,11.112-24.771,24.771v15.675
			c0,13.659,11.113,24.771,24.771,24.771h15.673c13.659,0,24.771-11.112,24.771-24.771V42.163c0-13.659-11.112-24.771-24.771-24.771
			H42.164z"/>
	</g>
	<path fill="#1A171B" d="M42.45,66.692c-2.393,0-4.816-1.844-4.816-5.368V38.677c0-3.524,2.423-5.368,4.816-5.368
		c0.998,0,2.004,0.289,2.993,0.86L65.055,45.49c1.831,1.058,2.881,2.701,2.881,4.509c0,1.809-1.05,3.452-2.882,4.509L45.443,65.831
		C44.454,66.403,43.447,66.692,42.45,66.692z M43.36,39.578v20.844l18.051-10.423L43.36,39.578z"/>
</g>
<g display="none">
	<path display="inline" fill="#1A171B" d="M84.233,75.041L65.368,54.276c1.459-2.924,2.428-6.151,2.784-9.586
		c0.766-7.379-1.387-14.613-6.063-20.372c-4.675-5.758-11.314-9.351-18.691-10.117c-0.962-0.1-1.938-0.15-2.9-0.15
		c-14.257,0-26.118,10.706-27.591,24.904c-1.582,15.231,9.523,28.91,24.756,30.493c0.961,0.1,1.935,0.15,2.896,0.15
		c3.336,0,6.538-0.593,9.509-1.673l18.989,20.904c2.188,2.406,5.232,3.788,8.352,3.788c2.493,0,4.853-0.898,6.646-2.528
		C88.235,86.286,88.315,79.537,84.233,75.041z M38.353,62.802c-11.568-1.201-20.002-11.591-18.8-23.158
		c1.118-10.783,10.123-18.913,20.946-18.913c0.732,0,1.475,0.038,2.209,0.115c5.603,0.582,10.645,3.31,14.195,7.683
		c3.551,4.374,5.186,9.868,4.604,15.472C61,48.882,58.866,53.21,55.69,56.496c-0.028,0.026-0.053,0.048-0.082,0.075l-0.786,0.758
		c-1.539,1.399-3.414,2.666-5.332,3.591l-0.074,0.036c-2.7,1.251-5.697,1.961-8.858,1.961
		C39.827,62.917,39.085,62.879,38.353,62.802z M79.561,85.146c-0.718,0.652-1.566,0.789-2.152,0.789c-1.241,0-2.484-0.583-3.408-1.6
		L56.228,64.77c1.557-1.065,2.995-2.291,4.302-3.647c0.413-0.377,0.789-0.724,1.104-1.022l17.653,19.431
		C80.895,81.302,81.017,83.821,79.561,85.146z"/>
	<path display="inline" fill="#1A171B" d="M48.414,45.164c1.845,0,3.34-1.496,3.34-3.34c0-1.844-1.495-3.34-3.34-3.34H43.87V33.94
		c0-1.844-1.495-3.34-3.34-3.34c-1.845,0-3.34,1.496-3.34,3.34v4.543h-4.544c-1.845,0-3.34,1.496-3.34,3.34
		c0,1.844,1.495,3.34,3.34,3.34h4.544v4.545c0,1.844,1.495,3.34,3.34,3.34c1.845,0,3.34-1.496,3.34-3.34v-4.545H48.414z"/>
</g>
<g display="none">
	<path display="inline" fill="#1A171B" d="M84.233,75.588L65.368,54.824c1.459-2.924,2.428-6.151,2.784-9.586
		c0.766-7.379-1.387-14.613-6.063-20.372c-4.676-5.758-11.314-9.351-18.691-10.117c-0.962-0.1-1.938-0.15-2.9-0.15
		c-14.257,0-26.118,10.706-27.591,24.904c-1.582,15.231,9.523,28.91,24.756,30.493c0.961,0.1,1.935,0.15,2.896,0.15
		c3.336,0,6.538-0.593,9.509-1.673l18.989,20.904c2.188,2.406,5.232,3.788,8.352,3.788c2.493,0,4.853-0.898,6.646-2.528
		C88.235,86.834,88.315,80.084,84.233,75.588z M38.353,63.35c-11.568-1.201-20.002-11.591-18.8-23.158
		c1.118-10.783,10.123-18.913,20.946-18.913c0.732,0,1.475,0.038,2.209,0.115c5.603,0.582,10.645,3.31,14.195,7.683
		c3.551,4.374,5.186,9.868,4.604,15.472C61,49.43,58.866,53.757,55.69,57.044c-0.028,0.026-0.053,0.048-0.082,0.075l-0.786,0.758
		c-1.539,1.399-3.414,2.666-5.332,3.591l-0.074,0.036c-2.7,1.251-5.696,1.961-8.858,1.961C39.827,63.464,39.085,63.426,38.353,63.35
		z M79.561,85.693c-0.718,0.652-1.566,0.789-2.152,0.789c-1.241,0-2.484-0.583-3.407-1.6L56.228,65.317
		c1.556-1.065,2.995-2.291,4.302-3.647c0.413-0.377,0.789-0.724,1.104-1.022L79.287,80.08C80.895,81.85,81.017,84.369,79.561,85.693
		z"/>
	<path display="inline" fill="#1A171B" d="M51.754,42.371c0-1.844-1.495-3.34-3.34-3.34H32.646c-1.845,0-3.34,1.496-3.34,3.34
		c0,1.844,1.495,3.34,3.34,3.34h15.768C50.259,45.711,51.754,44.215,51.754,42.371z"/>
</g>
<g display="none">
	<path display="inline" fill="#1A171B" d="M85.424,84.923H14.576c-2.532,0-4.603-1.071-5.681-2.939
		c-1.078-1.867-0.97-4.196,0.297-6.388L44.614,14.24c1.267-2.193,3.229-3.45,5.385-3.45c2.156,0,4.119,1.257,5.385,3.45
		l35.425,61.357c1.266,2.192,1.374,4.521,0.296,6.388C90.027,83.853,87.957,84.923,85.424,84.923z M15.378,78.243h69.245
		L49.999,18.274L15.378,78.243z"/>
	<g display="inline">
		<path fill="#1A171B" stroke="#1A171B" stroke-width="0.9056" stroke-miterlimit="10" d="M50.09,65.273
			c2.079,0,3.775,1.696,3.775,3.776c0,2.079-1.696,3.775-3.775,3.775c-2.079,0-3.775-1.695-3.775-3.775
			C46.315,66.969,48.011,65.273,50.09,65.273z M47.026,58.652V38.081c0-2.024,1.313-3.229,3.064-3.229
			c1.751,0,3.064,1.204,3.064,3.229v20.572c0,2.079-1.313,3.283-3.064,3.283C48.34,61.935,47.026,60.732,47.026,58.652z"/>
	</g>
</g>
<g display="none">
	<path display="inline" fill="#1A171B" d="M45.996,70.602H34.672c-13.04,0-23.649-10.609-23.649-23.65V35.628
		c0-13.041,10.609-23.65,23.649-23.65h11.324c13.04,0,23.649,10.609,23.649,23.65v11.324C69.645,59.992,59.036,70.602,45.996,70.602
		z M34.672,18.658c-9.357,0-16.968,7.613-16.968,16.969v11.324c0,9.357,7.612,16.969,16.968,16.969h11.324
		c9.357,0,16.968-7.613,16.968-16.969V35.628c0-9.357-7.612-16.969-16.968-16.969H34.672z"/>
	<path display="inline" fill="#1A171B" d="M67.856,90.308h-9.914c-9.689,0-20.485-6.761-20.485-16.461h6.681
		c0,4.936,6.838,9.781,13.804,9.781h9.914c7.963,0,14.441-6.479,14.441-14.442V59.27c0-6.48-4.058-13.729-9.489-13.729v-6.681
		c9.672,0,16.17,10.553,16.17,20.41v9.915C88.977,80.832,79.502,90.308,67.856,90.308z"/>
</g>
</svg>
